<?xml version="1.0" standalone="no"?>
<!DOCTYPE svg PUBLIC "-//W3C//DTD SVG 20010904//EN"
 "http://www.w3.org/TR/2001/REC-SVG-20010904/DTD/svg10.dtd">
<svg version="1.0" xmlns="http://www.w3.org/2000/svg"
 width="3330.000000pt" height="3330.000000pt" viewBox="0 0 3330.000000 3330.000000"
 preserveAspectRatio="xMidYMid meet">
<metadata>
Created by potrace 1.14, written by Peter Selinger 2001-2017
</metadata>
<g transform="translate(0.000000,3330.000000) scale(0.100000,-0.100000)"
fill="#000000" stroke="none">
<path d="M16605 31481 c-16 -5 -43 -16 -60 -25 -16 -9 -35 -16 -41 -16 -6 0
-17 -7 -25 -16 -7 -8 -34 -26 -59 -39 -25 -13 -52 -30 -59 -38 -6 -8 -38 -27
-69 -43 -31 -15 -88 -51 -127 -80 -38 -29 -86 -59 -105 -68 -43 -20 -92 -49
-164 -99 -30 -20 -84 -52 -119 -71 -35 -19 -97 -57 -138 -84 -75 -49 -106 -68
-167 -96 -19 -9 -51 -29 -72 -46 -21 -16 -42 -30 -48 -30 -5 0 -20 -8 -33 -18
-13 -10 -49 -32 -79 -47 -30 -16 -89 -52 -130 -81 -41 -28 -106 -68 -145 -89
-38 -21 -84 -49 -101 -62 -17 -13 -33 -23 -36 -23 -3 0 -35 -18 -71 -39 -35
-22 -80 -47 -98 -55 -19 -8 -61 -35 -94 -60 -33 -25 -65 -45 -72 -45 -6 -1
-24 -12 -40 -25 -25 -21 -127 -80 -246 -144 -23 -12 -82 -49 -132 -82 -49 -32
-126 -78 -170 -100 -44 -23 -89 -50 -100 -59 -18 -15 -64 -44 -145 -91 -14 -8
-70 -40 -125 -72 -55 -32 -118 -67 -140 -78 -22 -11 -58 -31 -80 -45 -22 -13
-65 -38 -95 -54 -112 -63 -186 -114 -240 -166 -31 -29 -65 -55 -77 -59 -12 -4
-32 -24 -45 -44 l-23 -37 4 -1440 c1 -792 0 -1457 -4 -1477 -6 -30 -12 -38
-28 -38 -24 0 -187 79 -187 91 0 10 -99 66 -132 74 -16 4 -28 10 -28 14 0 11
-106 82 -185 126 -38 21 -95 57 -125 80 -47 36 -174 105 -193 105 -3 0 -36 21
-74 46 -37 25 -97 62 -133 82 -36 20 -112 68 -170 107 -58 39 -132 86 -165
105 -33 18 -73 43 -90 55 -16 12 -55 35 -85 51 -30 15 -113 63 -185 105 -71
42 -142 83 -156 90 -14 8 -46 27 -70 43 -24 16 -78 48 -119 70 -71 39 -80 41
-155 40 -90 -1 -122 -14 -276 -110 -47 -30 -89 -54 -93 -54 -13 0 -214 -120
-226 -135 -7 -8 -18 -15 -24 -15 -20 0 -140 -65 -210 -114 -37 -26 -77 -52
-89 -57 -42 -20 -82 -45 -147 -90 -36 -26 -94 -60 -130 -77 -36 -17 -103 -56
-148 -87 -46 -30 -95 -58 -108 -61 -14 -4 -75 -38 -136 -76 -61 -38 -143 -86
-182 -106 -39 -21 -100 -58 -136 -83 -36 -25 -92 -59 -125 -76 -33 -17 -94
-52 -135 -77 -41 -25 -90 -53 -107 -61 -47 -22 -204 -115 -228 -134 -11 -10
-49 -32 -85 -50 -36 -18 -78 -45 -95 -60 -16 -15 -45 -38 -63 -51 -19 -12 -58
-52 -87 -87 -42 -51 -59 -83 -79 -148 -33 -104 -57 -133 -154 -186 -42 -23
-86 -50 -97 -59 -11 -10 -36 -21 -55 -25 -19 -4 -46 -15 -60 -24 -14 -9 -36
-23 -50 -29 -14 -7 -54 -30 -90 -52 -36 -21 -89 -50 -117 -65 -29 -15 -79 -46
-110 -69 -32 -24 -80 -56 -106 -72 -27 -16 -94 -57 -150 -91 -56 -34 -129 -76
-162 -93 -79 -42 -175 -100 -200 -121 -11 -9 -46 -28 -77 -42 -56 -25 -137
-75 -346 -213 -59 -38 -136 -85 -172 -102 -35 -18 -89 -49 -120 -69 -30 -20
-66 -44 -80 -53 -14 -9 -59 -33 -100 -53 -41 -20 -102 -55 -135 -77 -58 -38
-72 -46 -143 -76 -18 -8 -51 -31 -75 -51 -50 -45 -103 -83 -115 -83 -5 0 -63
-36 -130 -80 -67 -44 -152 -97 -190 -117 -38 -21 -97 -57 -133 -79 -65 -43
-89 -57 -217 -135 -99 -59 -106 -63 -187 -100 -38 -18 -114 -61 -168 -96 -53
-35 -113 -71 -132 -79 -19 -8 -67 -39 -106 -69 -39 -30 -75 -55 -80 -55 -6 0
-22 -8 -37 -19 -15 -10 -61 -38 -102 -61 -41 -24 -82 -49 -90 -57 -9 -7 -36
-23 -60 -36 -25 -13 -78 -46 -118 -73 -93 -62 -139 -90 -177 -108 -16 -8 -46
-27 -66 -43 -38 -29 -59 -43 -198 -124 -46 -27 -104 -64 -129 -81 -76 -55
-200 -182 -219 -224 -17 -37 -18 -313 -20 -6199 -1 -3388 2 -6208 7 -6268 7
-95 11 -112 39 -155 28 -43 84 -92 106 -92 12 0 84 -48 120 -81 17 -15 56 -41
87 -57 32 -17 70 -40 84 -51 15 -12 33 -21 40 -21 7 0 28 -13 46 -29 18 -16
62 -44 98 -62 36 -19 68 -37 71 -41 14 -21 170 -108 284 -159 27 -13 65 -37
85 -55 19 -17 51 -39 70 -48 47 -22 76 -40 97 -58 10 -9 34 -24 53 -33 19 -10
49 -30 66 -45 17 -15 53 -37 80 -50 27 -13 76 -45 109 -71 33 -25 77 -52 97
-58 20 -7 41 -18 48 -26 6 -7 22 -16 36 -19 14 -4 55 -28 92 -55 37 -26 81
-55 97 -63 87 -42 174 -95 232 -140 20 -15 58 -39 87 -52 28 -14 73 -43 100
-66 27 -23 86 -59 130 -81 110 -54 144 -74 175 -102 14 -14 53 -38 86 -55 66
-33 180 -106 190 -121 5 -9 17 -16 97 -58 18 -9 58 -35 88 -57 30 -23 87 -59
126 -81 39 -22 103 -62 140 -89 38 -27 98 -63 134 -80 36 -16 91 -50 122 -73
31 -24 73 -50 92 -58 19 -8 37 -19 40 -24 4 -5 23 -15 44 -22 20 -7 62 -32 92
-57 30 -25 73 -53 95 -64 22 -10 58 -29 80 -42 22 -14 54 -32 70 -42 17 -9 61
-39 99 -66 38 -26 77 -48 87 -48 9 0 48 -25 87 -54 38 -30 81 -58 96 -62 14
-3 29 -10 32 -16 3 -5 29 -19 57 -32 29 -13 75 -41 102 -62 28 -22 82 -55 120
-72 39 -18 75 -36 81 -40 7 -4 44 -28 83 -55 39 -26 74 -47 77 -47 3 0 18 -8
32 -19 15 -10 38 -22 52 -26 13 -4 52 -30 85 -57 33 -27 71 -51 85 -55 14 -3
36 -14 49 -25 13 -10 28 -18 34 -18 12 0 114 -67 122 -81 4 -5 48 -30 98 -55
51 -25 121 -63 157 -84 36 -22 97 -56 135 -75 39 -20 111 -65 160 -100 50 -35
114 -78 143 -95 29 -16 70 -46 91 -65 20 -19 63 -48 94 -64 31 -16 67 -37 79
-46 93 -64 203 -129 238 -140 25 -8 68 -36 106 -67 11 -10 74 -45 140 -79 65
-33 133 -73 149 -88 36 -33 118 -81 138 -81 8 0 31 -12 50 -27 85 -65 127 -93
178 -119 30 -15 79 -47 110 -70 53 -41 101 -71 164 -102 17 -9 59 -37 95 -62
75 -54 144 -94 180 -105 14 -4 44 -23 67 -43 43 -35 112 -75 190 -112 24 -10
66 -37 95 -59 29 -22 84 -56 122 -76 37 -20 80 -44 95 -54 130 -88 192 -124
230 -136 14 -4 53 -32 88 -61 35 -30 72 -54 82 -54 11 0 27 -7 35 -15 8 -9 30
-21 48 -27 32 -11 62 -30 128 -79 19 -14 50 -34 68 -43 76 -38 98 -51 154 -90
33 -23 72 -48 86 -56 15 -9 38 -23 52 -32 14 -9 36 -19 50 -23 14 -4 50 -29
81 -55 49 -43 102 -75 239 -145 21 -11 49 -30 62 -41 13 -12 52 -36 88 -54 67
-33 113 -61 164 -102 31 -24 57 -40 122 -73 21 -11 64 -40 94 -64 30 -24 69
-50 85 -58 53 -25 121 -66 210 -127 47 -32 105 -65 128 -74 22 -9 52 -27 66
-41 45 -42 103 -81 121 -81 10 0 23 -7 30 -14 6 -8 28 -20 48 -27 20 -6 64
-33 98 -59 34 -27 90 -63 125 -81 74 -38 112 -63 154 -100 17 -15 62 -44 100
-64 39 -20 95 -56 126 -81 32 -24 68 -49 80 -54 13 -6 45 -23 70 -38 26 -15
71 -40 100 -56 30 -16 66 -39 81 -52 15 -12 51 -34 80 -49 29 -14 81 -43 115
-63 34 -20 87 -51 117 -69 30 -18 65 -35 78 -38 14 -4 60 -33 103 -66 43 -32
98 -68 122 -80 23 -11 46 -25 49 -31 4 -5 28 -20 53 -32 26 -12 68 -38 93 -59
25 -20 60 -42 79 -49 18 -6 56 -29 84 -50 27 -21 69 -48 92 -59 24 -11 45 -25
48 -29 3 -5 22 -14 42 -21 21 -7 65 -32 98 -56 33 -24 79 -52 101 -62 23 -11
45 -24 48 -30 4 -6 16 -11 26 -11 10 0 26 -7 35 -16 9 -9 33 -28 53 -42 96
-66 152 -102 158 -102 11 0 84 -49 119 -80 26 -23 80 -57 185 -115 89 -50 154
-66 175 -46 6 6 68 39 138 75 71 36 151 85 179 110 27 24 67 48 88 55 21 6 43
18 50 26 7 8 18 15 24 15 10 0 86 52 139 96 9 7 21 14 25 14 18 0 146 71 177
98 19 17 63 44 99 62 36 17 68 35 71 40 3 6 14 10 24 10 10 0 38 15 62 32 72
53 109 78 117 78 14 0 128 64 162 91 19 15 80 51 135 79 55 29 114 64 130 79
43 38 87 67 115 76 14 4 36 16 49 26 13 11 32 19 42 19 9 0 32 12 50 27 40 34
85 62 169 104 36 18 74 41 85 50 20 18 53 37 195 112 41 21 83 46 93 55 22 19
89 59 165 97 29 15 72 41 95 59 60 45 92 65 177 109 41 22 90 52 110 68 19 16
39 29 45 29 5 0 23 11 39 25 16 14 35 25 43 25 18 0 101 47 133 75 14 13 73
48 132 79 59 30 140 78 180 105 40 27 89 56 108 65 52 24 123 66 177 106 27
19 62 40 80 47 32 12 157 89 222 138 19 14 40 25 47 25 13 0 29 9 157 91 43
28 92 55 110 61 18 6 43 19 56 30 13 10 29 18 36 18 6 0 48 24 91 53 43 29
100 63 126 76 26 12 82 46 124 74 98 66 87 60 169 97 39 17 81 42 95 54 21 20
57 40 174 98 39 20 83 47 136 83 30 21 78 49 105 62 66 31 91 46 113 66 10 9
39 26 64 37 26 11 50 25 54 31 3 6 23 18 43 26 42 17 197 109 226 134 11 9 30
20 43 24 26 7 55 25 170 101 42 28 88 55 102 59 14 4 39 16 56 26 17 11 39 19
47 19 9 0 31 13 49 29 18 16 82 54 141 85 59 31 126 70 149 86 23 17 47 30 53
30 7 0 18 7 25 15 7 8 41 29 76 45 35 17 76 41 91 54 39 32 107 75 182 114 36
18 81 46 100 61 52 39 88 61 161 99 36 19 74 42 85 51 27 24 118 81 185 116
30 16 71 41 90 56 19 15 61 41 93 58 31 17 67 37 79 46 13 8 29 15 36 15 8 0
50 27 94 60 45 33 86 60 91 60 6 0 55 30 109 67 99 69 153 103 198 125 14 7
59 35 101 64 42 28 87 55 100 59 13 4 31 13 39 20 8 6 35 22 60 33 25 12 68
39 95 60 28 21 70 48 95 60 43 21 159 92 209 128 13 9 45 28 70 41 25 14 62
37 81 52 50 38 85 60 170 104 41 21 84 47 95 57 11 10 38 27 60 39 22 12 47
25 55 30 8 5 35 19 60 30 25 11 68 35 97 53 28 18 64 41 80 50 15 10 35 22 43
28 8 5 26 15 40 20 25 10 91 52 193 123 30 20 57 37 60 37 8 0 104 62 137 89
14 11 29 21 34 21 4 0 21 11 38 25 16 14 37 25 46 25 9 1 42 16 72 35 30 20
68 43 84 53 15 9 47 29 70 44 22 15 47 28 54 28 7 0 25 8 40 19 72 50 204 132
225 140 13 5 44 23 68 40 107 76 177 121 189 121 17 0 78 37 110 66 14 13 41
30 60 38 19 8 49 24 65 36 17 11 36 20 43 20 7 0 25 8 40 18 98 67 207 134
270 165 40 21 98 54 128 75 31 20 84 52 118 70 33 19 86 50 116 69 50 32 87
55 145 91 11 6 33 19 49 28 15 8 56 36 90 61 33 25 75 52 91 59 17 8 53 27 80
44 28 16 68 39 90 51 22 11 49 29 60 38 11 10 39 24 62 33 22 9 67 33 100 53
140 90 184 117 238 144 17 8 57 35 90 60 33 25 89 61 125 79 36 19 74 42 85
52 11 10 39 27 63 39 23 12 42 26 42 31 0 5 12 13 28 16 31 8 108 49 137 75
11 9 41 27 68 39 26 12 47 26 47 30 0 5 10 12 22 16 27 8 124 70 133 84 8 12
126 90 137 90 4 0 20 21 35 47 l27 47 -1 6221 -1 6221 -22 74 c-26 87 -70 137
-156 175 -28 12 -73 38 -101 58 -27 19 -75 47 -106 62 -31 14 -78 41 -105 59
-26 18 -77 48 -112 67 -36 18 -96 53 -135 79 -38 25 -104 63 -145 85 -42 22
-122 70 -178 108 -56 37 -106 67 -111 67 -5 0 -63 36 -129 80 -66 44 -124 80
-128 80 -4 0 -43 24 -88 53 -45 29 -108 68 -141 87 -33 18 -88 55 -122 81 -34
27 -76 55 -95 63 -18 9 -42 21 -53 28 -11 7 -42 26 -70 42 -27 17 -66 42 -85
57 -19 15 -63 41 -97 58 -34 17 -63 35 -65 39 -4 10 -164 115 -208 137 -19 10
-64 39 -100 64 -36 26 -76 52 -90 59 -50 24 -216 136 -233 159 -10 13 -39 28
-63 34 -25 7 -70 31 -102 57 -31 24 -75 53 -97 64 -48 22 -61 30 -145 88 -128
87 -165 110 -176 110 -6 0 -40 23 -75 51 -35 29 -77 58 -94 65 -16 8 -73 41
-125 74 -52 33 -115 71 -140 85 -57 32 -69 40 -154 95 -78 51 -143 90 -201
119 -22 12 -63 38 -91 59 -28 22 -79 56 -115 76 -35 20 -89 54 -119 76 -30 22
-71 49 -90 60 -19 12 -52 31 -73 43 -20 12 -68 43 -105 68 -37 25 -101 68
-142 95 -41 27 -107 74 -147 105 -39 31 -76 58 -80 60 -23 10 -167 195 -203
261 -26 48 -57 90 -89 116 -74 62 -251 182 -345 232 -136 73 -158 86 -216 125
-30 21 -73 46 -95 57 -54 25 -105 57 -144 91 -18 15 -38 27 -44 27 -7 0 -57
32 -112 70 -55 38 -127 84 -160 101 -33 17 -96 55 -140 84 -44 29 -114 71
-155 92 -93 49 -148 80 -180 103 -14 9 -38 23 -55 32 -53 26 -135 74 -190 111
-16 11 -59 36 -95 54 -36 19 -81 44 -100 57 -19 12 -62 40 -95 61 -33 21 -72
46 -87 56 -15 11 -30 19 -34 19 -4 0 -44 24 -88 54 -45 30 -97 61 -116 70 -19
9 -64 32 -98 51 -89 49 -208 78 -265 65 -70 -15 -158 -59 -334 -166 -67 -41
-126 -74 -133 -74 -18 0 -73 -31 -100 -56 -14 -13 -46 -34 -70 -47 -164 -86
-209 -112 -240 -136 -66 -49 -97 -69 -133 -80 -19 -7 -41 -19 -47 -27 -7 -7
-18 -14 -24 -14 -6 0 -42 -21 -80 -47 -39 -27 -102 -66 -142 -88 -40 -22 -86
-51 -101 -65 -47 -41 -91 -70 -106 -70 -22 0 -105 -47 -185 -106 -41 -30 -79
-54 -85 -54 -22 0 -145 -66 -197 -106 -61 -47 -169 -96 -215 -98 l-30 -1 -7
110 c-5 94 2 1052 19 2304 5 419 1 449 -71 534 -59 69 -137 127 -236 173 -19
9 -53 28 -75 43 -22 15 -51 32 -65 39 -48 23 -198 107 -211 118 -8 7 -45 29
-84 49 -38 21 -102 59 -141 86 -39 26 -101 64 -138 83 -37 20 -92 53 -122 73
-30 21 -88 58 -129 83 -41 25 -95 58 -121 74 -26 16 -70 46 -98 67 -28 22 -54
39 -59 39 -4 0 -60 32 -125 71 -64 39 -126 76 -136 82 -31 19 -155 99 -200
130 -23 15 -51 32 -64 37 -12 6 -61 35 -108 66 -47 31 -108 68 -137 83 -29 14
-78 44 -111 66 -32 22 -78 51 -102 65 -74 42 -198 119 -224 139 -14 10 -70 45
-125 76 -55 32 -112 66 -126 76 -15 10 -71 41 -125 69 -55 28 -113 62 -129 74
-17 13 -69 43 -115 66 -47 24 -114 62 -150 85 -138 89 -159 98 -245 101 -44 2
-93 -1 -110 -5z m102 -4519 c-36 -40 -18 -72 63 -112 25 -12 86 -53 135 -89
135 -101 194 -143 250 -177 27 -17 88 -55 135 -84 97 -60 176 -108 205 -124
33 -18 253 -154 365 -226 58 -37 193 -119 300 -182 107 -64 256 -153 330 -198
132 -82 299 -180 393 -234 26 -15 47 -31 47 -35 0 -5 -21 -22 -47 -37 -27 -15
-68 -42 -93 -60 -25 -17 -117 -73 -205 -124 -245 -142 -542 -322 -730 -443
-93 -61 -224 -144 -290 -185 -65 -41 -189 -120 -275 -176 -85 -57 -182 -118
-215 -136 -181 -102 -355 -239 -355 -281 0 -9 15 -30 34 -47 52 -46 383 -268
548 -368 151 -91 308 -190 593 -374 187 -120 536 -330 820 -493 110 -63 200
-120 200 -127 0 -16 -445 -295 -806 -504 -151 -88 -400 -236 -554 -331 -366
-224 -469 -285 -715 -425 -113 -64 -215 -123 -228 -131 -21 -13 -35 -8 -205
78 -172 87 -231 120 -507 289 -63 39 -241 140 -395 224 -154 84 -309 170 -344
191 -34 22 -64 39 -66 39 -2 0 -81 47 -177 104 -155 92 -247 146 -373 216 -22
12 -83 46 -135 75 -52 30 -112 61 -132 71 -21 10 -38 23 -38 30 0 14 146 103
506 310 127 72 269 155 315 184 46 29 192 118 324 199 718 442 747 459 940
588 205 137 260 177 263 194 2 10 -22 33 -60 59 -35 24 -94 68 -132 97 -37 29
-112 78 -165 109 -225 132 -326 193 -501 304 -194 123 -404 251 -580 355 -58
33 -240 147 -405 251 -365 231 -371 235 -415 255 l-35 15 25 16 c14 9 87 51
164 93 76 43 191 112 255 155 166 109 309 198 441 272 164 93 468 278 655 398
88 56 237 148 330 202 94 55 213 130 265 166 52 36 121 83 153 104 31 21 57
43 57 49 0 11 36 27 64 28 18 1 18 0 3 -17z m8969 -3009 c19 -14 91 -54 159
-89 127 -64 191 -103 486 -297 96 -62 226 -145 289 -184 63 -39 251 -163 417
-275 269 -180 531 -347 633 -402 67 -36 161 -108 174 -135 21 -42 29 -227 41
-941 1 -96 3 -203 4 -237 1 -62 21 -92 21 -33 0 23 4 30 20 30 11 0 20 -4 20
-10 0 -5 -4 -10 -10 -10 -5 0 -10 -13 -10 -30 0 -23 4 -30 20 -30 11 0 20 5
20 10 0 6 5 10 10 10 6 0 10 -9 10 -20 0 -13 7 -20 20 -20 11 0 20 -7 20 -15
0 -9 11 -27 25 -40 13 -14 31 -25 40 -25 8 0 15 -4 15 -10 0 -5 9 -10 20 -10
16 0 20 7 20 30 0 17 5 30 10 30 6 0 10 -9 10 -20 0 -13 7 -20 20 -20 11 0 20
5 20 10 0 6 27 10 60 10 33 0 60 -4 60 -10 0 -5 -4 -10 -10 -10 -14 0 -13 -20
3 -53 14 -32 47 -37 47 -7 0 11 5 20 10 20 6 0 10 -9 10 -20 0 -13 7 -20 18
-20 10 0 24 9 32 20 12 16 26 20 72 20 51 0 58 2 58 20 0 15 7 20 28 20 16 0
34 8 42 20 10 14 26 20 51 20 21 0 40 6 43 13 5 10 7 10 12 0 14 -31 84 -5 84
31 0 9 3 16 6 16 11 0 34 -29 34 -44 0 -9 8 -16 20 -16 11 0 20 5 20 10 0 6
18 10 40 10 22 0 40 5 40 10 0 6 8 10 18 10 10 0 24 9 32 20 8 11 21 20 30 20
9 0 22 -9 30 -20 27 -38 102 -22 111 24 4 16 6 16 26 -3 28 -26 30 -26 27 2
-1 12 -3 22 -4 22 -1 0 -3 12 -4 26 -1 25 0 26 28 18 27 -8 38 -15 90 -61 11
-10 23 -18 27 -18 4 0 21 -13 39 -29 45 -40 54 -47 63 -49 4 -1 18 -13 32 -26
13 -13 34 -27 46 -31 14 -5 19 -13 16 -26 -3 -10 -2 -19 3 -19 4 0 7 -10 6
-22 -1 -18 5 -23 24 -24 14 -1 57 -5 96 -9 49 -5 74 -4 78 4 4 6 17 11 28 11
28 0 -28 -40 -187 -135 -66 -40 -169 -103 -230 -140 -60 -38 -198 -120 -305
-183 -194 -114 -341 -209 -475 -307 -123 -90 -357 -239 -525 -335 -52 -30
-187 -112 -300 -183 -113 -71 -315 -195 -450 -276 -135 -81 -360 -224 -500
-317 -140 -93 -300 -196 -355 -228 -55 -32 -165 -97 -245 -144 -80 -48 -258
-162 -397 -254 -138 -92 -256 -168 -262 -168 -6 0 -11 -3 -11 -7 0 -5 -10 -13
-23 -19 -103 -51 -309 -173 -315 -186 -2 -5 -10 -8 -17 -8 -7 0 -15 -4 -17 -9
-1 -5 -32 -27 -68 -50 -36 -22 -70 -45 -77 -51 -7 -5 -15 -10 -18 -10 -3 0
-39 -22 -80 -50 -41 -27 -77 -50 -80 -50 -3 0 -46 -27 -95 -60 -84 -57 -119
-73 -105 -50 5 9 96 66 183 115 10 6 38 26 62 45 25 19 52 40 61 45 9 6 36 23
60 39 24 16 69 45 99 64 30 19 73 47 95 62 22 15 56 36 75 47 123 69 264 153
322 190 36 24 69 43 72 43 20 0 349 237 451 324 57 49 160 129 193 151 30 19
52 40 52 47 0 5 -18 8 -39 8 -25 0 -41 5 -45 15 -6 17 -46 21 -46 4 0 -5 -4
-7 -10 -4 -5 3 -10 18 -10 33 0 15 -7 38 -16 51 -11 15 -18 53 -22 115 -4 76
-8 94 -26 110 -14 13 -17 20 -8 23 15 6 16 39 1 48 -6 4 -7 14 -4 24 11 26 14
151 4 151 -5 0 -9 18 -9 40 0 30 4 40 16 40 23 0 44 25 44 54 0 17 6 26 16 26
20 0 44 24 44 44 0 9 8 16 20 16 11 0 20 5 20 10 0 6 5 10 10 10 6 0 10 -9 10
-20 0 -11 5 -20 10 -20 6 0 10 5 10 10 0 6 7 10 16 10 8 0 33 18 54 40 21 22
48 40 60 40 25 0 50 22 50 44 0 11 9 16 30 16 23 0 30 4 30 20 0 11 5 20 10
20 6 0 10 -4 10 -10 0 -5 9 -10 20 -10 13 0 20 7 20 20 0 16 7 20 30 20 23 0
30 4 30 20 0 11 5 20 10 20 6 0 10 -4 10 -10 0 -18 35 -11 50 10 10 14 26 20
52 20 21 0 38 5 38 10 0 6 13 10 29 10 16 0 32 6 35 13 5 10 7 10 12 0 3 -7
14 -13 25 -13 10 0 19 -4 19 -10 0 -5 9 -10 20 -10 11 0 20 5 20 10 0 6 13 10
29 10 16 0 31 6 34 13 3 8 11 5 24 -10 15 -17 31 -23 60 -23 31 0 46 -7 68
-30 16 -16 39 -30 52 -30 12 0 27 -9 33 -20 6 -11 17 -20 25 -20 8 0 15 -4 15
-10 0 -5 9 -10 20 -10 11 0 20 -4 20 -10 0 -5 14 -10 30 -10 17 0 30 -3 30 -7
0 -5 12 -13 26 -20 21 -10 29 -10 39 1 11 11 5 19 -33 49 -50 37 -153 104
-213 136 -57 31 -291 190 -324 221 -35 31 -327 231 -600 408 -104 68 -230 156
-280 195 -209 165 -379 287 -695 500 -525 352 -654 441 -658 454 -4 14 160
124 328 221 58 33 175 104 261 159 86 54 176 110 201 124 l45 27 6 107 c4 60
7 398 7 752 0 603 3 683 26 683 3 0 21 -12 40 -27z m-18002 -14 c3 -17 6 -298
6 -623 0 -600 5 -703 37 -739 9 -9 91 -60 182 -112 91 -52 238 -141 326 -199
88 -58 217 -141 286 -185 69 -44 136 -89 150 -100 l24 -19 -30 -13 c-49 -22
-193 -107 -300 -179 -102 -68 -276 -178 -490 -310 -153 -95 -236 -176 -215
-210 5 -8 10 -25 10 -38 0 -31 -24 -23 -28 9 -6 43 -19 43 -89 -3 -38 -25
-131 -83 -208 -130 -246 -148 -275 -168 -827 -541 -145 -98 -290 -201 -323
-228 -33 -27 -82 -65 -109 -84 -61 -42 -68 -65 -20 -65 19 0 43 5 53 12 15 9
25 9 46 0 32 -15 65 -16 65 -2 0 6 29 10 68 10 56 0 70 3 82 20 10 14 26 20
52 20 21 0 38 5 38 10 0 6 7 10 15 10 9 0 25 9 37 20 12 11 32 20 45 20 13 0
23 5 23 10 0 6 9 10 20 10 11 0 20 5 20 10 0 6 9 10 20 10 26 0 25 -8 -2 -31
-11 -11 -18 -22 -15 -26 4 -3 15 4 26 15 10 12 26 22 35 22 9 0 16 5 16 10 0
6 27 10 60 10 33 0 60 -4 60 -10 0 -5 14 -10 30 -10 17 0 30 5 30 10 0 6 9 10
20 10 14 0 20 7 20 21 0 20 -4 21 -112 16 -62 -2 -103 -2 -90 0 27 5 29 23 2
23 -11 0 -20 5 -20 10 0 6 9 10 20 10 11 0 20 5 20 10 0 6 18 10 40 10 22 0
40 -4 40 -10 0 -5 14 -10 30 -10 23 0 30 4 30 20 0 11 -4 20 -10 20 -5 0 -10
-4 -10 -10 0 -5 -9 -10 -20 -10 -13 0 -20 7 -20 20 0 16 7 20 30 20 17 0 30 5
30 10 0 6 9 10 20 10 11 0 20 5 20 10 0 6 23 10 50 10 28 0 50 5 50 10 0 6 9
10 20 10 13 0 20 -7 20 -20 0 -11 -4 -20 -10 -20 -5 0 -10 -9 -10 -20 0 -16 7
-20 30 -20 28 0 30 2 30 40 0 22 5 40 10 40 6 0 10 -22 10 -50 l0 -50 40 0 40
0 0 40 c0 33 3 40 20 40 13 0 20 -7 20 -20 0 -17 7 -20 40 -20 33 0 40 -3 40
-20 0 -13 7 -20 20 -20 16 0 20 -7 20 -30 0 -26 -4 -30 -28 -30 -15 0 -42 4
-60 9 -17 5 -32 6 -32 2 0 -19 29 -31 78 -31 30 0 59 -6 66 -13 16 -16 26 -84
32 -232 4 -115 19 -267 31 -329 9 -51 23 -7 23 79 1 84 23 281 32 291 3 3 9
-68 13 -158 19 -453 26 -535 46 -523 19 12 39 -63 39 -150 0 -71 3 -85 16 -85
30 0 44 -27 44 -84 0 -53 1 -56 25 -56 29 0 75 -40 75 -65 0 -8 9 -15 20 -15
11 0 20 -4 20 -10 0 -5 23 -10 50 -10 43 0 50 -3 50 -20 0 -16 7 -20 30 -20
17 0 30 5 30 10 0 6 27 10 60 10 33 0 60 -4 60 -10 0 -5 9 -10 20 -10 13 0 20
-7 20 -20 0 -11 5 -20 10 -20 6 0 10 -13 10 -30 0 -23 4 -30 20 -30 11 0 20
-4 20 -10 0 -5 9 -10 20 -10 13 0 20 -7 20 -20 0 -23 34 -28 44 -7 5 10 7 10
12 0 3 -7 14 -13 25 -13 12 0 19 -7 19 -20 0 -16 7 -20 36 -20 27 0 43 -7 64
-30 17 -18 38 -30 54 -30 14 0 26 -4 26 -10 0 -5 8 -10 18 -10 10 0 24 -9 32
-20 8 -12 26 -20 42 -20 15 0 28 -4 28 -10 0 -5 14 -10 30 -10 17 0 30 -4 30
-10 0 -5 14 -10 30 -10 23 0 30 -4 30 -20 0 -16 7 -20 30 -20 17 0 30 -4 30
-10 0 -5 14 -10 30 -10 17 0 30 -4 30 -10 0 -5 14 -10 30 -10 23 0 30 -4 30
-20 0 -13 7 -20 20 -20 11 0 20 5 20 10 0 18 35 11 50 -10 11 -15 26 -20 62
-20 26 0 48 -3 48 -7 0 -9 49 -33 67 -33 7 0 13 -4 13 -10 0 -5 14 -10 30 -10
17 0 30 -4 30 -10 0 -5 9 -10 20 -10 11 0 20 -3 20 -7 0 -9 49 -33 67 -33 7 0
13 -4 13 -10 0 -5 14 -10 30 -10 17 0 30 -4 30 -10 0 -5 8 -10 18 -10 10 0 24
-9 32 -20 8 -11 22 -20 32 -20 11 0 18 -7 18 -20 0 -13 7 -20 20 -20 10 0 24
-9 30 -20 6 -11 15 -20 20 -20 6 0 10 9 10 20 0 11 5 20 10 20 6 0 10 -9 10
-20 0 -16 7 -20 30 -20 17 0 30 -4 30 -10 0 -5 9 -10 20 -10 13 0 20 -7 20
-20 0 -13 7 -20 20 -20 11 0 20 5 20 10 0 6 5 10 10 10 6 0 10 -9 10 -20 0
-13 7 -20 20 -20 11 0 20 -4 20 -10 0 -5 9 -10 20 -10 11 0 20 -4 20 -10 0 -5
9 -10 20 -10 13 0 20 -7 20 -20 0 -16 7 -20 30 -20 23 0 30 -4 30 -20 0 -22
35 -29 42 -8 6 17 38 -14 38 -36 0 -9 8 -16 20 -16 13 0 20 7 20 20 0 11 3 20
6 20 11 0 34 -29 34 -44 0 -12 11 -16 50 -16 28 0 50 -4 50 -10 0 -5 9 -10 20
-10 13 0 20 -7 20 -20 0 -17 7 -20 40 -20 22 0 40 5 40 10 0 6 5 10 10 10 6 0
10 -9 10 -20 0 -16 7 -20 30 -20 17 0 30 5 30 10 0 6 5 10 10 10 6 0 10 -9 10
-20 0 -16 7 -20 30 -20 17 0 30 5 30 10 0 6 5 10 10 10 6 0 10 -9 10 -20 0
-15 7 -20 28 -20 16 0 34 -8 42 -20 8 -11 22 -20 32 -20 10 0 18 -4 18 -10 0
-5 9 -10 20 -10 11 0 20 -4 20 -10 0 -5 9 -10 20 -10 11 0 20 -4 20 -10 0 -5
9 -10 20 -10 12 0 20 -7 20 -16 0 -22 25 -44 50 -44 31 0 50 -24 50 -64 0 -29
4 -36 20 -36 11 0 20 5 20 10 0 6 5 10 10 10 6 0 10 -9 10 -20 0 -11 4 -20 9
-20 5 0 11 -34 13 -75 2 -60 0 -75 -12 -79 -8 -2 1 -4 21 -5 25 -1 58 11 105
38 38 21 161 89 274 151 113 63 248 139 300 170 52 32 115 67 140 80 72 36
172 106 214 151 36 36 40 45 37 85 -1 26 2 44 8 44 6 0 11 -9 11 -20 0 -26 36
-27 50 -1 5 11 10 33 10 50 0 17 5 31 10 31 6 0 10 14 10 30 0 17 5 30 10 30
16 0 11 39 -7 59 -10 10 -31 26 -48 36 -16 11 -66 42 -110 70 -44 28 -118 76
-165 106 -47 29 -170 113 -275 185 -104 72 -244 163 -310 203 -126 77 -174
110 -580 391 -137 96 -308 212 -380 258 -362 235 -775 518 -775 530 0 4 23 13
51 19 88 21 310 139 647 342 376 227 460 281 486 310 11 12 25 21 32 21 7 0
106 -57 221 -126 114 -70 291 -175 393 -234 412 -239 615 -367 1005 -633 88
-60 272 -171 415 -250 30 -17 80 -47 111 -66 31 -20 86 -54 123 -76 75 -45
153 -96 536 -347 146 -96 324 -207 395 -248 72 -40 148 -86 170 -100 22 -15
76 -49 120 -75 154 -92 291 -179 452 -287 90 -59 165 -108 169 -108 3 0 18 -8
32 -19 15 -10 67 -33 115 -52 l88 -33 -38 -11 c-92 -28 -314 -159 -605 -356
-200 -135 -230 -153 -247 -142 -9 5 -17 20 -19 32 -4 26 -17 27 -31 4 -9 -17
-16 -15 -87 21 -83 43 -345 198 -484 287 -47 30 -123 76 -169 103 -205 118
-422 273 -472 338 -18 24 -50 61 -72 82 -34 33 -38 42 -29 57 19 30 15 83 -8
99 -21 15 -28 50 -10 50 6 0 10 14 10 30 0 23 -4 30 -20 30 -13 0 -20 7 -20
20 0 11 -4 20 -10 20 -5 0 -10 5 -10 10 0 6 9 10 20 10 16 0 20 7 20 30 0 17
5 30 10 30 15 0 12 49 -4 66 -25 24 -46 17 -46 -16 0 -16 -4 -30 -10 -30 -5 0
-10 16 -10 36 0 19 -6 42 -14 50 -17 16 -46 19 -46 4 0 -5 5 -10 10 -10 6 0
10 -13 10 -30 0 -16 -4 -30 -10 -30 -5 0 -10 5 -10 10 0 6 -13 10 -30 10 -16
0 -30 5 -30 10 0 6 -9 10 -20 10 -13 0 -20 -7 -20 -20 0 -11 -4 -20 -10 -20
-15 0 -12 -29 4 -46 8 -8 26 -14 40 -14 14 0 26 -4 26 -10 0 -5 18 -10 40 -10
22 0 40 -4 40 -10 0 -5 -9 -10 -20 -10 -16 0 -20 -7 -20 -30 0 -23 4 -30 20
-30 13 0 20 7 20 20 0 11 5 20 10 20 6 0 10 -13 10 -30 0 -23 4 -30 20 -30 23
0 27 -25 6 -46 -8 -8 -22 -14 -30 -14 -9 0 -16 -4 -16 -10 0 -5 -9 -10 -20
-10 -13 0 -20 7 -20 20 0 13 -7 20 -20 20 -13 0 -20 -7 -20 -20 0 -13 -7 -20
-20 -20 -13 0 -20 7 -20 20 0 16 -7 20 -30 20 -23 0 -30 4 -30 20 0 16 -7 20
-30 20 -26 0 -30 -3 -30 -29 0 -16 6 -31 13 -34 7 -2 8 -8 3 -13 -5 -5 -11 -4
-13 4 -6 16 -51 15 -69 -2 -8 -8 -14 -31 -14 -50 0 -29 -4 -36 -20 -36 -15 0
-20 -7 -20 -29 0 -16 6 -32 13 -35 10 -5 10 -7 0 -12 -23 -10 -14 -53 17 -86
17 -17 30 -35 30 -40 0 -9 -16 -31 -38 -51 -8 -7 -36 -31 -62 -55 -29 -26 -51
-39 -55 -33 -3 6 -10 11 -15 11 -10 0 -7 -40 8 -125 6 -33 13 -170 16 -305 7
-308 20 -472 44 -519 13 -28 81 -83 297 -242 159 -116 285 -216 291 -230 7
-15 16 -174 24 -419 19 -578 33 -778 63 -870 6 -19 14 -57 17 -85 4 -42 8 -50
28 -53 14 -2 22 -10 22 -22 0 -11 25 -36 63 -63 35 -25 69 -52 76 -61 8 -9 19
-16 27 -16 7 0 33 -13 57 -30 25 -16 54 -30 66 -30 12 0 30 -9 41 -20 13 -13
33 -20 59 -20 22 0 42 -4 45 -9 3 -5 44 -7 92 -4 47 2 93 1 102 -3 10 -4 73
-8 142 -10 69 -1 145 -7 170 -13 46 -10 134 -14 655 -32 506 -18 792 -21 953
-9 315 21 450 29 617 35 136 4 183 10 233 27 61 21 65 21 93 4 18 -11 40 -15
54 -12 13 3 36 1 52 -5 15 -6 74 -12 131 -14 56 -3 110 -9 120 -14 9 -5 109
-11 222 -14 198 -5 245 -10 235 -27 -9 -14 41 -20 99 -10 57 9 86 5 86 -11 0
-5 5 -9 12 -9 6 0 8 3 5 7 -4 3 -2 12 4 20 13 15 79 18 79 3 0 -13 47 -13 55
0 4 7 50 10 118 9 62 -1 164 4 227 10 177 19 1395 24 1532 7 59 -7 156 -13
215 -12 96 2 114 5 160 29 29 15 62 27 73 27 11 0 32 7 46 16 13 9 27 14 31
10 3 -3 4 -7 2 -9 -2 -1 -29 -21 -59 -44 -82 -61 -179 -121 -340 -210 -80 -44
-217 -125 -306 -181 -89 -55 -211 -130 -273 -167 -62 -36 -183 -112 -269 -167
-429 -275 -485 -310 -665 -413 -66 -36 -194 -112 -285 -167 -92 -56 -203 -122
-247 -148 -136 -79 -302 -182 -495 -307 -102 -65 -203 -130 -225 -143 -55 -32
-241 -157 -293 -197 -24 -18 -48 -33 -54 -33 -5 0 -15 13 -21 29 -6 16 -21 34
-34 40 -27 12 -489 316 -598 392 -93 66 -611 409 -881 584 -254 165 -552 362
-644 426 -36 25 -105 70 -155 99 -49 30 -127 78 -172 107 -46 29 -85 53 -87
53 -8 0 -162 99 -539 344 -84 55 -172 111 -197 126 -25 15 -83 51 -130 80 -47
30 -119 72 -160 95 -127 70 -328 187 -475 277 -429 261 -521 318 -635 393 -69
45 -136 88 -150 95 -31 16 -188 113 -380 235 -80 50 -260 160 -400 244 -140
84 -304 186 -365 226 -97 64 -306 189 -418 249 -22 11 -116 74 -210 138 -95
65 -228 153 -297 197 -69 43 -181 114 -251 158 -69 44 -166 103 -216 131 -50
28 -175 104 -279 170 -186 117 -223 141 -492 316 -75 49 -195 123 -267 164
-113 65 -203 125 -393 260 -26 18 -76 49 -112 69 -36 20 -81 48 -100 62 -19
14 -53 35 -75 47 -70 37 -150 82 -216 123 -95 59 -230 142 -264 161 -69 40
-175 107 -256 161 -109 73 -301 194 -359 227 -142 79 -221 126 -360 216 -211
135 -312 197 -395 241 -76 41 -115 68 -215 145 -36 27 -68 50 -72 50 -7 0
-111 61 -273 160 -38 24 -182 118 -320 210 -137 92 -281 186 -320 210 -290
178 -411 252 -530 320 -111 63 -279 168 -325 203 -30 23 -57 43 -59 44 -2 2
-2 5 0 8 3 2 18 -2 33 -11 53 -27 99 -21 168 21 35 21 76 51 92 67 17 15 36
28 44 28 7 0 20 7 29 15 8 9 23 13 33 10 12 -4 19 1 23 16 3 12 10 18 17 14 6
-4 33 8 61 25 27 18 53 30 56 26 4 -3 16 0 29 9 20 13 21 13 17 -5 -4 -15 -1
-18 16 -13 12 3 24 9 27 14 3 5 14 9 24 9 11 0 35 9 55 20 20 11 42 20 50 20
8 0 30 14 48 30 19 17 44 30 56 30 17 0 21 -6 21 -30 0 -23 4 -30 20 -30 16 0
20 7 20 30 0 20 5 30 15 30 24 0 56 21 99 65 24 24 41 35 44 27 4 -14 62 -16
62 -2 0 6 9 10 20 10 13 0 20 -7 20 -20 0 -13 7 -20 20 -20 11 0 20 5 20 10 0
6 14 10 30 10 17 0 30 5 30 10 0 6 5 10 10 10 6 0 10 -9 10 -20 0 -13 7 -20
20 -20 13 0 20 7 20 20 0 11 4 20 8 20 4 0 14 -9 22 -20 8 -12 26 -20 42 -20
15 0 28 -4 28 -10 0 -5 -9 -10 -20 -10 -12 0 -20 -7 -20 -18 0 -9 -9 -23 -20
-30 -11 -7 -20 -21 -20 -32 0 -16 7 -20 30 -20 23 0 30 -4 30 -20 0 -13 7 -20
20 -20 16 0 20 -7 20 -30 0 -23 4 -30 20 -30 11 0 20 -4 20 -10 0 -18 32 -11
51 12 l19 21 19 -21 c10 -12 26 -22 35 -22 9 0 16 -8 16 -20 0 -11 -4 -20 -8
-20 -4 0 -14 9 -22 20 -8 11 -22 20 -32 20 -15 0 -18 -9 -18 -50 0 -43 3 -50
19 -50 11 0 21 6 23 12 6 17 38 -14 38 -36 0 -9 5 -16 10 -16 6 0 10 -9 10
-20 0 -11 4 -20 8 -20 13 0 31 -58 25 -80 -5 -20 21 -60 39 -60 4 0 8 14 8 30
0 17 5 30 10 30 6 0 10 -4 10 -10 0 -5 9 -10 20 -10 13 0 20 -7 20 -18 0 -10
6 -24 13 -31 9 -9 12 -116 12 -464 0 -434 1 -453 20 -482 11 -16 27 -35 35
-42 25 -19 31 30 18 152 -7 76 -11 458 -10 1240 2 1218 1 1206 53 1261 13 13
70 49 128 80 58 31 113 61 121 68 33 28 317 203 440 271 159 89 705 412 870
515 41 26 122 73 180 105 58 31 164 96 237 144 73 47 148 94 167 103 19 10 37
22 41 28 14 22 42 10 49 -21z m12834 -1231 c-8 -7 -24 -19 -36 -25 -18 -11
-20 -10 -15 3 3 9 15 20 27 24 31 13 39 12 24 -2z m7472 -1208 c0 -23 -4 -30
-20 -30 -23 0 -27 23 -7 45 19 22 27 18 27 -15z m-23800 -60 c0 -5 -8 -10 -17
-10 -15 0 -16 2 -3 10 19 12 20 12 20 0z m25065 -90 c3 -6 -1 -7 -9 -4 -18 7
-21 14 -7 14 6 0 13 -4 16 -10z m-24065 -110 c0 -5 -4 -10 -10 -10 -5 0 -10 5
-10 10 0 6 5 10 10 10 6 0 10 -4 10 -10z m23180 -40 c0 -5 -4 -10 -10 -10 -5
0 -10 5 -10 10 0 6 5 10 10 10 6 0 10 -4 10 -10z m-23060 -100 c0 -34 -5 -37
-26 -16 -21 21 -17 46 6 46 16 0 20 -7 20 -30z m17492 -476 c57 -37 154 -100
216 -141 156 -101 389 -246 498 -309 89 -52 310 -189 349 -218 11 -7 18 -16
15 -18 -3 -3 -70 -42 -150 -88 -80 -46 -208 -120 -285 -165 -77 -45 -198 -115
-270 -155 -116 -66 -357 -214 -620 -380 -49 -31 -146 -90 -215 -130 -142 -84
-414 -248 -664 -400 -191 -116 -502 -277 -556 -286 -34 -7 -141 -58 -265 -127
-33 -18 -181 -114 -330 -213 -148 -99 -335 -220 -415 -268 -184 -112 -391
-243 -500 -316 -124 -83 -197 -123 -212 -114 -7 4 -38 26 -68 49 -30 23 -143
99 -252 169 -108 70 -229 156 -270 192 -69 62 -283 226 -324 250 -16 10 -19
24 -21 100 l-3 89 91 59 c50 33 101 65 113 71 11 7 45 26 74 43 29 18 55 32
57 32 3 0 28 15 57 33 29 19 73 45 98 59 25 14 63 36 85 48 22 13 64 36 93 51
30 16 66 37 80 47 15 11 52 32 82 49 97 53 134 75 177 104 23 16 44 29 48 29
3 0 46 27 95 60 49 33 91 60 94 60 5 0 130 75 166 100 14 9 50 30 80 47 30 17
73 40 95 53 22 12 58 32 80 43 22 12 42 24 45 27 3 3 16 12 30 19 14 8 77 46
140 85 106 64 192 113 247 140 13 6 23 14 23 19 0 4 4 7 9 7 6 0 30 14 54 30
25 17 50 30 56 30 6 0 11 5 11 10 0 6 7 10 15 10 8 0 15 4 15 9 0 5 8 11 18
14 9 4 35 18 57 32 22 13 51 30 65 37 14 7 27 15 30 18 14 14 61 32 67 26 10
-10 -19 -32 -82 -61 -30 -14 -91 -63 -150 -119 -55 -53 -101 -91 -103 -86 -6
16 -22 12 -22 -5 0 -9 -10 -19 -23 -24 -12 -5 -46 -34 -74 -65 -29 -31 -58
-56 -65 -56 -13 0 -38 -44 -38 -67 0 -17 17 -17 24 0 5 10 7 10 12 0 3 -7 12
-13 21 -13 14 0 43 -23 43 -34 0 -3 -9 -6 -20 -6 -17 0 -20 -7 -20 -48 0 -36
-5 -51 -20 -62 -12 -8 -20 -26 -20 -42 0 -21 5 -28 20 -28 16 0 20 -7 20 -30
0 -16 -4 -30 -10 -30 -5 0 -10 -8 -10 -18 0 -10 -9 -35 -20 -57 -25 -50 -25
-60 3 -80 15 -12 18 -19 10 -22 -8 -3 -13 -24 -13 -54 0 -27 -4 -49 -10 -49
-6 0 -10 -27 -10 -60 0 -47 3 -60 15 -60 22 0 73 -52 57 -58 -21 -7 -14 -42 8
-42 11 0 20 5 20 10 0 6 8 10 18 10 10 0 24 9 32 20 19 26 37 25 60 -2 16 -21
18 -21 34 -5 16 15 16 19 2 32 -8 8 -22 15 -30 15 -9 0 -16 8 -16 20 0 16 7
20 38 20 26 0 42 -6 52 -20 8 -11 26 -20 40 -20 14 0 32 9 40 20 8 12 26 20
42 20 21 0 28 5 28 20 0 11 5 20 10 20 6 0 10 -4 10 -10 0 -5 9 -10 20 -10 13
0 20 -7 20 -20 0 -28 18 -25 33 7 9 21 9 27 -1 31 -6 2 -12 10 -12 18 0 17 44
64 60 64 18 0 40 27 40 49 0 11 5 23 10 26 6 3 10 28 10 56 0 27 4 49 8 49 13
0 13 112 0 127 -6 7 -11 31 -11 53 0 32 -3 40 -18 40 -11 0 -19 -4 -19 -10 0
-5 -9 -10 -20 -10 -18 0 -20 7 -20 86 l0 86 40 38 c35 34 40 44 40 83 0 25 4
47 10 49 8 3 18 137 24 343 l2 60 85 53 c46 29 90 55 98 59 8 4 64 38 124 75
60 38 162 100 226 137 211 124 385 227 471 281 47 29 119 73 160 98 41 25 147
92 234 149 87 56 162 103 167 103 4 0 54 -30 111 -66z m-15632 -74 c0 -11 -4
-20 -10 -20 -5 0 -10 9 -10 20 0 11 5 20 10 20 6 0 10 -9 10 -20z m-800 -310
c0 -5 -4 -10 -10 -10 -5 0 -10 5 -10 10 0 6 5 10 10 10 6 0 10 -4 10 -10z
m-140 -20 c0 -5 -4 -10 -10 -10 -5 0 -10 5 -10 10 0 6 5 10 10 10 6 0 10 -4
10 -10z m1290 -25 c0 -14 -4 -25 -10 -25 -11 0 -14 33 -3 43 11 11 13 8 13
-18z m310 -1135 c0 -5 -4 -10 -10 -10 -5 0 -10 5 -10 10 0 6 5 10 10 10 6 0
10 -4 10 -10z m13120 -80 c0 -5 -4 -10 -10 -10 -5 0 -10 5 -10 10 0 6 5 10 10
10 6 0 10 -4 10 -10z m-4293 -83 c45 -37 105 -77 364 -238 455 -283 645 -403
809 -509 74 -48 161 -100 192 -115 32 -15 56 -31 53 -35 -3 -5 -31 -23 -63
-40 -31 -18 -158 -99 -282 -180 -124 -81 -236 -153 -250 -160 -14 -7 -97 -59
-185 -115 -88 -56 -243 -152 -345 -213 -102 -61 -230 -140 -285 -176 l-99 -64
-58 53 c-58 54 -217 163 -663 452 -126 83 -322 216 -435 296 -113 81 -229 159
-257 174 -29 16 -53 30 -53 33 0 3 19 11 43 17 40 12 79 34 387 223 74 46 207
125 295 175 88 51 228 132 310 180 83 48 206 118 275 156 69 38 141 78 160 89
45 25 53 25 87 -3z m-7907 -257 c0 -5 -4 -10 -10 -10 -5 0 -10 5 -10 10 0 6 5
10 10 10 6 0 10 -4 10 -10z m11980 -40 c0 -5 -9 -10 -20 -10 -11 0 -20 5 -20
10 0 6 9 10 20 10 11 0 20 -4 20 -10z m529 -713 c106 -85 150 -114 441 -287
339 -202 366 -219 620 -400 113 -81 248 -175 300 -210 52 -35 128 -89 168
-122 78 -62 89 -66 130 -44 42 22 99 46 110 46 6 0 23 11 38 25 15 14 34 25
43 25 9 0 24 9 34 20 9 11 24 20 33 20 8 0 30 11 48 25 18 14 36 22 39 19 8
-8 -18 -34 -33 -34 -7 0 -19 -9 -28 -19 -10 -11 -37 -30 -62 -43 -25 -12 -111
-65 -190 -116 -159 -103 -432 -267 -665 -400 -82 -47 -211 -126 -285 -175
-204 -135 -420 -269 -680 -422 -129 -75 -356 -215 -505 -310 -148 -95 -317
-199 -375 -232 -58 -33 -137 -79 -176 -102 -39 -22 -75 -41 -80 -41 -5 0 -9
24 -9 53 0 28 -7 230 -14 447 -17 509 -12 1073 9 1114 11 21 57 55 155 114
262 159 360 214 517 293 178 89 292 159 307 188 7 12 11 123 11 305 0 156 3
291 6 300 10 25 22 20 93 -37z m3411 -34 c-8 -3 -23 -14 -34 -25 -11 -10 -25
-18 -30 -18 -6 1 3 12 19 25 17 14 37 25 45 24 13 0 13 -1 0 -6z m-144 -88
c-36 -19 -45 -19 -20 0 10 8 26 14 34 15 8 0 2 -7 -14 -15z m-39 -31 c-3 -3
-12 -4 -19 -1 -8 3 -5 6 6 6 11 1 17 -2 13 -5z m-37 -14 c0 -5 -8 -10 -17 -10
-15 0 -16 2 -3 10 19 12 20 12 20 0z m-90 -47 c-8 -3 -22 -11 -30 -17 -13 -10
-13 -9 -1 7 7 9 21 17 30 16 13 0 14 -1 1 -6z m-90 -53 c0 -5 -5 -10 -10 -10
-6 0 -44 -22 -85 -50 -41 -27 -76 -50 -79 -50 -3 0 -29 -14 -58 -31 -29 -18
-78 -46 -108 -62 -30 -17 -57 -33 -60 -36 -3 -3 -16 -12 -29 -19 -13 -8 -40
-23 -60 -34 -20 -11 -56 -34 -80 -52 -24 -17 -71 -48 -105 -69 -33 -21 -63
-42 -66 -47 -8 -11 -156 -106 -190 -122 -16 -7 -30 -16 -30 -20 0 -5 -8 -8
-17 -8 -11 0 -3 10 22 27 22 15 49 35 59 45 25 23 249 178 289 200 18 10 48
29 67 44 19 14 73 48 120 75 112 65 118 69 165 98 34 21 245 131 253 131 1 0
2 -4 2 -10z"/>
<path d="M28080 21090 c0 -11 4 -20 9 -20 11 0 22 26 14 34 -12 12 -23 5 -23
-14z"/>
<path d="M29499 21087 c-1 -7 -1 -15 0 -19 0 -5 -10 -8 -24 -8 -23 0 -25 -4
-25 -43 0 -24 3 -46 6 -50 8 -8 96 36 113 57 7 9 18 13 23 9 6 -3 9 0 6 8 -3
8 -13 16 -24 18 -10 2 -23 9 -29 16 -15 18 -45 26 -46 12z"/>
<path d="M28040 21070 c0 -11 5 -20 10 -20 6 0 10 9 10 20 0 11 -4 20 -10 20
-5 0 -10 -9 -10 -20z"/>
<path d="M29575 21080 c3 -5 10 -10 16 -10 5 0 9 5 9 10 0 6 -7 10 -16 10 -8
0 -12 -4 -9 -10z"/>
<path d="M29325 20920 c-10 -11 -28 -20 -40 -20 -20 0 -84 -55 -74 -64 8 -8
93 24 105 39 5 7 23 17 40 21 16 4 32 12 36 18 20 30 -40 36 -67 6z"/>
<path d="M28375 20329 c-4 -6 -5 -13 -1 -16 8 -8 56 6 56 17 0 13 -47 13 -55
-1z"/>
<path d="M27883 20295 c0 -22 2 -30 4 -17 2 12 2 30 0 40 -3 9 -5 -1 -4 -23z"/>
<path d="M27880 20194 c0 -8 5 -12 10 -9 6 3 10 10 10 16 0 5 -4 9 -10 9 -5 0
-10 -7 -10 -16z"/>
<path d="M27876 20100 c-4 -28 -4 -67 0 -86 l6 -35 29 27 c16 15 29 36 29 46
0 12 7 18 21 18 33 0 16 25 -19 28 -24 2 -33 9 -38 28 -10 38 -21 28 -28 -26z"/>
<path d="M27583 19859 c-78 -87 -82 -105 -16 -77 15 6 38 20 50 31 13 12 43
21 82 24 59 6 94 25 75 42 -10 8 -113 51 -123 51 -3 0 -34 -32 -68 -71z"/>
<path d="M26300 19780 c0 -5 -9 -10 -20 -10 -13 0 -20 -7 -20 -20 0 -11 -4
-20 -9 -20 -11 0 -51 -66 -51 -86 0 -8 2 -14 5 -14 12 0 55 50 55 62 0 8 9 20
20 28 11 8 20 22 20 32 0 10 5 18 10 18 6 0 10 5 10 10 0 6 -4 10 -10 10 -5 0
-10 -4 -10 -10z"/>
<path d="M27425 19740 c-22 -22 -49 -40 -60 -40 -20 0 -55 -28 -55 -43 0 -24
96 18 120 52 8 12 22 21 32 21 11 0 18 7 18 19 0 34 -16 31 -55 -9z"/>
<path d="M27238 19635 c-35 -48 -13 -61 36 -21 29 24 28 46 -2 46 -9 0 -25
-11 -34 -25z"/>
<path d="M26200 19400 c0 -5 5 -10 10 -10 6 0 10 5 10 10 0 6 -4 10 -10 10 -5
0 -10 -4 -10 -10z"/>
<path d="M26575 19169 c-10 -14 -1 -21 19 -13 9 3 13 10 10 15 -7 12 -21 11
-29 -2z"/>
<path d="M5000 21219 c0 -17 20 -49 30 -49 6 0 10 14 10 30 0 23 -4 30 -20 30
-11 0 -20 -5 -20 -11z"/>
<path d="M7100 20370 c0 -20 27 -40 54 -40 14 0 26 5 26 10 0 6 9 10 20 10 16
0 20 -7 20 -30 0 -24 4 -30 21 -30 17 0 20 5 17 33 -3 30 -6 33 -48 39 -25 4
-60 10 -77 14 -23 4 -33 2 -33 -6z"/>
<path d="M6940 20350 c0 -18 7 -20 70 -20 63 0 70 2 70 20 0 18 -7 20 -70 20
-63 0 -70 -2 -70 -20z"/>
<path d="M6460 20225 c-7 -8 -19 -15 -26 -15 -8 0 -14 -4 -14 -10 0 -18 32
-11 51 12 11 11 19 23 19 25 0 9 -19 1 -30 -12z"/>
<path d="M7552 19400 c0 -14 2 -19 5 -12 2 6 2 18 0 25 -3 6 -5 1 -5 -13z"/>
<path d="M12760 19010 c0 -13 7 -20 20 -20 13 0 20 7 20 20 0 13 -7 20 -20 20
-13 0 -20 -7 -20 -20z"/>
<path d="M13040 19001 c0 -16 6 -32 13 -35 10 -5 10 -7 0 -12 -7 -3 -13 -19
-13 -35 0 -22 5 -29 20 -29 13 0 20 7 20 20 0 11 5 20 10 20 6 0 10 14 10 30
0 17 -4 30 -10 30 -5 0 -10 9 -10 20 0 13 -7 20 -20 20 -15 0 -20 -7 -20 -29z"/>
<path d="M12460 18864 c0 -14 6 -32 14 -40 17 -16 46 -19 46 -4 0 6 -4 10 -10
10 -5 0 -10 14 -10 30 0 23 -4 30 -20 30 -15 0 -20 -7 -20 -26z"/>
<path d="M12312 18358 c-13 -13 -16 -48 -4 -48 14 0 32 23 32 42 0 21 -11 23
-28 6z"/>
<path d="M10240 17840 c0 -5 12 -10 26 -10 14 0 23 4 19 10 -3 6 -15 10 -26
10 -10 0 -19 -4 -19 -10z"/>
<path d="M20453 19268 c-32 -15 -29 -28 7 -28 23 0 30 4 30 20 0 22 -5 23 -37
8z"/>
</g>
</svg>
